<?xml version="1.0" standalone="no"?>
<!DOCTYPE svg PUBLIC "-//W3C//DTD SVG 20010904//EN"
 "http://www.w3.org/TR/2001/REC-SVG-20010904/DTD/svg10.dtd">
<svg version="1.0" xmlns="http://www.w3.org/2000/svg"
 width="24" height="24" viewBox="0 0 250 250"
 preserveAspectRatio="xMidYMid meet">

<g transform="translate(0.000000,250.000000) scale(0.100000,-0.100000)"
fill="currentColor" stroke="none">
<path d="M1080 2435 c-614 -91 -1063 -636 -1026 -1245 32 -530 395 -972 901
-1099 195 -49 383 -49 583 0 331 81 627 321 785 634 74 148 117 341 117 525 0
322 -110 596 -335 829 -132 138 -246 214 -420 283 -187 75 -412 102 -605 73z
m375 -179 c83 -19 118 -34 112 -49 -3 -6 -121 -300 -262 -652 -452 -1127 -486
-1210 -494 -1218 -21 -21 -185 89 -291 196 -129 129 -220 288 -268 467 -22 83
-25 115 -25 250 0 135 4 168 26 254 106 397 425 689 835 762 90 16 276 11 367
-10z m351 -147 c44 -28 120 -92 169 -143 140 -141 220 -285 271 -483 34 -136
34 -327 -1 -466 -48 -196 -133 -346 -274 -488 -202 -201 -440 -301 -721 -301
-120 0 -273 22 -294 42 -4 5 157 420 364 937 205 510 375 934 377 941 9 21 27
14 109 -39z"/>
<path d="M530 1290 l0 -380 75 0 75 0 0 380 0 380 -75 0 -75 0 0 -380z"/>
<path d="M1039 1643 c-9 -27 -29 -78 -203 -522 -42 -107 -76 -198 -76 -203 0
-4 36 -8 79 -8 l79 0 16 43 c9 23 22 60 29 82 13 39 16 40 66 45 l52 5 25 60
c13 33 24 61 24 63 0 1 -20 2 -43 2 -24 0 -46 2 -49 5 -6 6 77 244 90 257 5 5
14 -10 21 -34 7 -24 19 -54 26 -67 11 -22 14 -18 48 68 21 50 37 97 37 105 0
7 -11 39 -25 70 l-25 56 -80 0 c-79 0 -81 -1 -91 -27z"/>
<path d="M1683 1339 c-45 -13 -96 -67 -111 -116 -21 -70 -15 -162 13 -219 34
-66 65 -87 138 -92 48 -4 64 -1 87 17 41 30 46 27 42 -24 -5 -54 -28 -75 -84
-75 -26 0 -41 6 -51 20 -12 17 -90 40 -139 40 -14 0 -9 -41 9 -77 26 -56 83
-76 199 -71 105 4 133 18 169 79 18 31 20 52 20 274 l0 240 -53 3 c-47 3 -54
1 -59 -17 -7 -26 -7 -26 -41 -1 -33 24 -96 32 -139 19z m142 -113 c46 -46 42
-166 -8 -201 -36 -25 -82 -19 -111 16 -22 25 -26 41 -26 89 0 48 4 64 26 89
33 40 83 43 119 7z"/>
<path d="M1334 1157 l-42 -102 20 -50 c11 -27 24 -60 29 -72 8 -21 15 -23 93
-23 l84 0 -69 172 c-38 95 -71 173 -72 174 -1 1 -21 -44 -43 -99z"/>
</g>
</svg>
